<svg xmlns="http://www.w3.org/2000/svg" viewBox="0 0 400 300" width="400" height="300">
<defs>
<linearGradient id="b" x1="0" y1="0" x2="0" y2="1">
<stop offset="0" stop-color="#16383a"/><stop offset="1" stop-color="#0a1f21"/></linearGradient>
<filter id="g" x="-50%" y="-50%" width="200%" height="200%">
<feGaussianBlur stdDeviation="6" result="x"/><feMerge><feMergeNode in="x"/><feMergeNode in="SourceGraphic"/></feMerge></filter>
</defs>
<style>
.bd{fill:url(#b);stroke:#3c6d6b;stroke-width:2}
.ac{fill:none;stroke:#4FB8A8;stroke-width:2.5;stroke-linecap:round}
.dim{fill:none;stroke:#2E7A70;stroke-width:2;stroke-linecap:round}
.lt{fill:#E8F1EE;opacity:.86}
.sl{fill:#7E9895}
.am{fill:#E8A33D;filter:url(#g)}
.tl{fill:#4FB8A8}
.tx{fill:#E8F1EE;font-family:ui-monospace,monospace;font-weight:500}
</style>

<rect class="bd" x="152" y="52" width="96" height="200" rx="22"/>
<circle cx="200" cy="98" r="22" fill="#061a1b" stroke="#4FB8A8" stroke-width="2.5"/>
<path class="ac" d="M190 98a10 10 0 0 1 20 0M194 104a6 6 0 0 1 12 0M186 92a14 14 0 0 1 28 0" opacity=".9"/>
<g class="lt">
<circle cx="182" cy="146" r="5"/><circle cx="200" cy="146" r="5"/><circle cx="218" cy="146" r="5"/>
<circle cx="182" cy="168" r="5"/><circle cx="200" cy="168" r="5"/><circle cx="218" cy="168" r="5"/>
<circle cx="182" cy="190" r="5"/><circle cx="200" cy="190" r="5"/><circle cx="218" cy="190" r="5"/>
</g>
<rect x="180" y="216" width="40" height="7" rx="3.5" class="sl" opacity=".6"/>
</svg>
